<svg id="Left_side_copy" data-name="Left side copy" xmlns="http://www.w3.org/2000/svg" xmlns:xlink="http://www.w3.org/1999/xlink" viewBox="0 0 127.28 86.96"><defs><style>.cls-1{fill:url(#linear-gradient);}.cls-2,.cls-7{stroke:#b78f74;}.cls-2,.cls-5,.cls-7{stroke-miterlimit:10;stroke-width:0.28px;}.cls-2{fill:url(#linear-gradient-2);}.cls-3{fill:url(#linear-gradient-3);}.cls-4,.cls-9{opacity:0.54;}.cls-4{fill:url(#linear-gradient-4);}.cls-5{fill:none;stroke:#654337;}.cls-6{fill:url(#linear-gradient-5);}.cls-7{fill:url(#linear-gradient-6);}.cls-8{fill:url(#linear-gradient-7);}.cls-9{fill:url(#linear-gradient-8);}</style><linearGradient id="linear-gradient" x1="34.01" y1="60.9" x2="45.14" y2="50.33" gradientUnits="userSpaceOnUse"><stop offset="0.24" stop-color="#9f6d5a"/><stop offset="0.57" stop-color="#c09b88"/><stop offset="0.61" stop-color="#c4a18e"/></linearGradient><linearGradient id="linear-gradient-2" x1="15.09" y1="73.57" x2="54.02" y2="60.67" gradientUnits="userSpaceOnUse"><stop offset="0.02" stop-color="#cbac9c"/><stop offset="0.07" stop-color="#ab8b7c"/><stop offset="0.14" stop-color="#856457"/><stop offset="0.2" stop-color="#6e4c3f"/><stop offset="0.23" stop-color="#654337"/></linearGradient><linearGradient id="linear-gradient-3" x1="25.23" y1="110.03" x2="48.04" y2="70.51" gradientUnits="userSpaceOnUse"><stop offset="0" stop-color="#936452"/><stop offset="0.01" stop-color="#956654"/><stop offset="0.12" stop-color="#a8806e"/><stop offset="0.24" stop-color="#b89383"/><stop offset="0.38" stop-color="#c3a191"/><stop offset="0.54" stop-color="#c9aa99"/><stop offset="0.81" stop-color="#cbac9c"/></linearGradient><linearGradient id="linear-gradient-4" x1="52.32" y1="102.89" x2="36.38" y2="24.77" gradientUnits="userSpaceOnUse"><stop offset="0.03" stop-color="#fff" stop-opacity="0"/><stop offset="0.31" stop-color="#fff" stop-opacity="0.36"/><stop offset="0.58" stop-color="#fff" stop-opacity="0.7"/><stop offset="0.78" stop-color="#fff" stop-opacity="0.92"/><stop offset="0.87" stop-color="#fff"/></linearGradient><linearGradient id="linear-gradient-5" x1="38.01" y1="60.9" x2="49.14" y2="50.33" gradientTransform="matrix(-1, 0, 0, 1, 145.64, 0)" xlink:href="#linear-gradient"/><linearGradient id="linear-gradient-6" x1="19.09" y1="73.57" x2="58.02" y2="60.67" gradientTransform="matrix(-1, 0, 0, 1, 145.64, 0)" xlink:href="#linear-gradient-2"/><linearGradient id="linear-gradient-7" x1="29.23" y1="110.03" x2="52.04" y2="70.51" gradientTransform="matrix(-1, 0, 0, 1, 145.64, 0)" xlink:href="#linear-gradient-3"/><linearGradient id="linear-gradient-8" x1="56.32" y1="102.89" x2="40.38" y2="24.77" gradientTransform="matrix(-1, 0, 0, 1, 145.64, 0)" xlink:href="#linear-gradient-4"/></defs><path class="cls-1" d="M9.33,27.9c2.94,2.7,44,37.52,55.88,47.56,3.05,2.56,2.89,4,2.89,6.41V88.2S29.1,60,27.43,58.71C26.18,57.22,8.51,32.1,8,29.58,7.34,26.35,6.56,25.34,9.33,27.9Z" transform="translate(-7.18 -26.42)"/><path class="cls-2" d="M68.1,90.12v-5S29.82,56.82,28.19,55.51c-1.44-1.83-17.77-24.8-19.16-27s-2.13-2.86-1.41-.27C10.14,37.29,14.31,52,18.93,66.8c5.93,18.94,12.44,37.93,15.24,44.76.77,1.89,1.62,1.67,2.39,1.67h6.61c2.21,0,3.2-.12,5.56-2.24L66,95.53C67.67,94.07,68.1,93.46,68.1,90.12Z" transform="translate(-7.18 -26.42)"/><path class="cls-3" d="M34.45,110.11l-6.26-54.6L68.1,85.17s-19.68,24.94-20.62,26a4.43,4.43,0,0,1-3.4,1.47H36.83C35,112.66,34.64,111.8,34.45,110.11Z" transform="translate(-7.18 -26.42)"/><path class="cls-4" d="M34.45,110.11l-6.26-54.6L68.1,85.17s-19.68,24.94-20.62,26a4.43,4.43,0,0,1-3.4,1.47H36.83C35,112.66,34.64,111.8,34.45,110.11Z" transform="translate(-7.18 -26.42)"/><path class="cls-5" d="M68.1,85.17v5c0,3.34-.43,3.95-2.13,5.41L48.73,111c-2.36,2.12-3.35,2.23-5.56,2.24H36.56c-.77,0-1.62.22-2.39-1.67-2.8-6.83-9.31-25.82-15.24-44.76,0,0-10.28-34.9-10.93-37.22-.79-2.79-1.44-4.24,1.33-1.68,2.94,2.7,44,37.52,55.88,47.56,3.05,2.56,2.89,4,2.89,6.41Z" transform="translate(-7.18 -26.42)"/><path class="cls-6" d="M132.3,27.9c-2.93,2.7-43.94,37.52-55.87,47.56-3.05,2.56-2.89,4-2.89,6.41V88.2s39-28.24,40.67-29.49c1.25-1.49,18.92-26.61,19.43-29.13C134.3,26.35,135.08,25.34,132.3,27.9Z" transform="translate(-7.18 -26.42)"/><path class="cls-7" d="M73.54,90.12v-5s38.28-28.35,39.91-29.66c1.44-1.83,17.77-24.8,19.16-27s2.13-2.86,1.41-.27C131.5,37.29,127.33,52,122.71,66.8c-5.93,18.94-12.44,37.93-15.24,44.76-.77,1.89-1.62,1.67-2.39,1.67H98.47c-2.21,0-3.2-.12-5.56-2.24L75.67,95.53C74,94.07,73.54,93.46,73.54,90.12Z" transform="translate(-7.18 -26.42)"/><path class="cls-8" d="M107.19,110.11l6.26-54.6L73.54,85.17s19.68,24.94,20.62,26a4.41,4.41,0,0,0,3.4,1.47h7.25C106.68,112.66,107,111.8,107.19,110.11Z" transform="translate(-7.18 -26.42)"/><path class="cls-9" d="M107.19,110.11l6.26-54.6L73.54,85.17s19.68,24.94,20.62,26a4.41,4.41,0,0,0,3.4,1.47h7.25C106.68,112.66,107,111.8,107.19,110.11Z" transform="translate(-7.18 -26.42)"/><path class="cls-5" d="M73.54,85.17v5c0,3.34.43,3.95,2.13,5.41L92.91,111c2.36,2.12,3.35,2.23,5.56,2.24h6.61c.77,0,1.62.22,2.39-1.67,2.8-6.83,9.31-25.82,15.24-44.76,0,0,10.28-34.9,10.93-37.22.79-2.79,1.44-4.24-1.34-1.68-2.93,2.7-43.94,37.52-55.87,47.56-3.05,2.56-2.89,4-2.89,6.41Z" transform="translate(-7.18 -26.42)"/></svg>